<svg version="1.1" xmlns="http://www.w3.org/2000/svg" viewBox="0 0 649.0625610351562 351.82281494140625" width="649.0625610351562" height="351.82281494140625">
  <!-- svg-source:excalidraw -->
  <rect x="0" y="0" width="649.0625610351562" height="351.82281494140625" fill="#ffffff"></rect><g stroke-linecap="round" transform="translate(10 243.30996704101562) rotate(0 70.73959350585938 42.5)"><path d="M21.25 0 C43.48 -0.2, 69.84 -1.22, 120.23 0 M21.25 0 C58.92 -0.32, 96.82 -0.64, 120.23 0 M120.23 0 C135.67 0.31, 142.16 6.48, 141.48 21.25 M120.23 0 C135.53 1.34, 142.97 6.06, 141.48 21.25 M141.48 21.25 C142.04 33.65, 142.23 43.8, 141.48 63.75 M141.48 21.25 C140.73 35.79, 141.72 50.26, 141.48 63.75 M141.48 63.75 C139.58 79, 136.35 84.06, 120.23 85 M141.48 63.75 C140.46 79.66, 136.15 83.39, 120.23 85 M120.23 85 C86.32 83.09, 53.89 85.67, 21.25 85 M120.23 85 C93.33 85.02, 67.35 84.66, 21.25 85 M21.25 85 C6.71 83.54, -0.15 76.14, 0 63.75 M21.25 85 C4.86 85.45, -2.21 78.9, 0 63.75 M0 63.75 C0.9 51.35, -0.18 38.91, 0 21.25 M0 63.75 C0.85 46.8, -0.42 29.46, 0 21.25 M0 21.25 C-0.47 7.66, 7.23 -1.83, 21.25 0 M0 21.25 C0.84 6.49, 7 -1.18, 21.25 0" stroke="#1e1e1e" stroke-width="2" fill="none"></path></g><g transform="translate(26.239669799804688 248.30996704101562) rotate(0 54.49992370605469 37.5)"><text x="54.49992370605469" y="17.5" font-family="monospace" font-size="16px" fill="#1e1e1e" text-anchor="middle" style="white-space: pre;" direction="ltr" dominant-baseline="alphabetic">Example</text><text x="54.49992370605469" y="42.5" font-family="monospace" font-size="16px" fill="#1e1e1e" text-anchor="middle" style="white-space: pre;" direction="ltr" dominant-baseline="alphabetic">key: (0,0)</text><text x="54.49992370605469" y="67.5" font-family="monospace" font-size="16px" fill="#1e1e1e" text-anchor="middle" style="white-space: pre;" direction="ltr" dominant-baseline="alphabetic">max: (7,1)</text></g><g stroke-linecap="round" transform="translate(125.19525146484375 119.77340698242188) rotate(0 70.73959350585938 42.5)"><path d="M21.25 0 C57.65 -2.13, 90.67 1.04, 120.23 0 M21.25 0 C42.72 0.74, 62.53 -0.54, 120.23 0 M120.23 0 C132.79 -1.7, 142.92 7.56, 141.48 21.25 M120.23 0 C133.35 -2, 139.96 8.59, 141.48 21.25 M141.48 21.25 C141.48 33.13, 141.93 41.98, 141.48 63.75 M141.48 21.25 C140.75 38.04, 140.97 54.15, 141.48 63.75 M141.48 63.75 C143.33 78.27, 136.26 85.96, 120.23 85 M141.48 63.75 C139.45 78.16, 133.45 84.59, 120.23 85 M120.23 85 C91.83 83.19, 68.84 83.21, 21.25 85 M120.23 85 C88.21 85.15, 56.26 85.97, 21.25 85 M21.25 85 C6.04 85.29, 1.73 78.07, 0 63.75 M21.25 85 C7.25 87.02, 1.91 79.28, 0 63.75 M0 63.75 C-0.8 49.15, 1.6 33.73, 0 21.25 M0 63.75 C0.67 50.44, 0.49 38.87, 0 21.25 M0 21.25 C0.37 8.17, 9.05 -0.67, 21.25 0 M0 21.25 C-0.59 9.38, 6.99 0.5, 21.25 0" stroke="#1e1e1e" stroke-width="2" fill="none"></path></g><g transform="translate(135.93492889404297 124.77340698242188) rotate(0 59.999916076660156 37.5)"><text x="59.999916076660156" y="17.5" font-family="monospace" font-size="16px" fill="#1e1e1e" text-anchor="middle" style="white-space: pre;" direction="ltr" dominant-baseline="alphabetic">someValue</text><text x="59.999916076660156" y="42.5" font-family="monospace" font-size="16px" fill="#1e1e1e" text-anchor="middle" style="white-space: pre;" direction="ltr" dominant-baseline="alphabetic">key: (1,2)</text><text x="59.999916076660156" y="67.5" font-family="monospace" font-size="16px" fill="#1e1e1e" text-anchor="middle" style="white-space: pre;" direction="ltr" dominant-baseline="alphabetic">max: (7,28)</text></g><g stroke-linecap="round" transform="translate(290.44781494140625 10) rotate(0 70.73959350585938 42.5)"><path d="M21.25 0 C45.7 -1.36, 66.28 -2.26, 120.23 0 M21.25 0 C42.07 -1.11, 63.14 0.42, 120.23 0 M120.23 0 C133.39 -1.84, 140.61 7.47, 141.48 21.25 M120.23 0 C135.85 0.97, 140.9 9.14, 141.48 21.25 M141.48 21.25 C142.19 30.69, 141.32 42.9, 141.48 63.75 M141.48 21.25 C140.99 34.87, 141.46 48.09, 141.48 63.75 M141.48 63.75 C140.82 77.64, 133.01 83.06, 120.23 85 M141.48 63.75 C140.19 79.66, 133.13 85.58, 120.23 85 M120.23 85 C94.19 86.08, 70.6 84.14, 21.25 85 M120.23 85 C89.19 85.95, 58.84 85.67, 21.25 85 M21.25 85 C8.15 84.55, 1.34 77.02, 0 63.75 M21.25 85 C7.57 86.73, 0.03 77.86, 0 63.75 M0 63.75 C-1.64 51.13, 0.5 36.51, 0 21.25 M0 63.75 C-0.67 49.69, -0.46 33.85, 0 21.25 M0 21.25 C0.54 6.14, 6.8 1.49, 21.25 0 M0 21.25 C2 5.74, 6.64 -0.27, 21.25 0" stroke="#1e1e1e" stroke-width="2" fill="none"></path></g><g transform="translate(301.18749237060547 15) rotate(0 59.999916076660156 37.5)"><text x="59.999916076660156" y="17.5" font-family="monospace" font-size="16px" fill="#1e1e1e" text-anchor="middle" style="white-space: pre;" direction="ltr" dominant-baseline="alphabetic">pow</text><text x="59.999916076660156" y="42.5" font-family="monospace" font-size="16px" fill="#1e1e1e" text-anchor="middle" style="white-space: pre;" direction="ltr" dominant-baseline="alphabetic">key: (3,2)</text><text x="59.999916076660156" y="67.5" font-family="monospace" font-size="16px" fill="#1e1e1e" text-anchor="middle" style="white-space: pre;" direction="ltr" dominant-baseline="alphabetic">max: (7,32)</text></g><g stroke-linecap="round" transform="translate(497.5833740234375 125.21096801757812) rotate(0 70.73959350585938 42.5)"><path d="M21.25 0 C56.33 -0.87, 96.2 -0.56, 120.23 0 M21.25 0 C42.45 0.23, 62.13 0.7, 120.23 0 M120.23 0 C133.05 1.1, 140.58 7.56, 141.48 21.25 M120.23 0 C133.87 -0.45, 143.61 7.5, 141.48 21.25 M141.48 21.25 C141.89 37.14, 141.32 54.03, 141.48 63.75 M141.48 21.25 C140.62 34.18, 140.63 45.85, 141.48 63.75 M141.48 63.75 C140.58 79.01, 134.77 84.21, 120.23 85 M141.48 63.75 C142.51 78.91, 133.19 85.33, 120.23 85 M120.23 85 C83.73 86.73, 44.91 86.14, 21.25 85 M120.23 85 C92.98 85.31, 65.32 84.53, 21.25 85 M21.25 85 C7.58 86.37, 1.56 76.57, 0 63.75 M21.25 85 C8.44 85.91, 0.42 79.17, 0 63.75 M0 63.75 C2.14 46.74, 0.58 30.44, 0 21.25 M0 63.75 C0.93 52.42, -0.13 42.15, 0 21.25 M0 21.25 C-0.1 5.89, 8.57 -1.56, 21.25 0 M0 21.25 C0.49 8.64, 7.97 0.69, 21.25 0" stroke="#1e1e1e" stroke-width="2" fill="none"></path></g><g transform="translate(508.3230514526367 130.21096801757812) rotate(0 59.999916076660156 37.5)"><text x="59.999916076660156" y="17.5" font-family="monospace" font-size="16px" fill="#1e1e1e" text-anchor="middle" style="white-space: pre;" direction="ltr" dominant-baseline="alphabetic">num</text><text x="59.999916076660156" y="42.5" font-family="monospace" font-size="16px" fill="#1e1e1e" text-anchor="middle" style="white-space: pre;" direction="ltr" dominant-baseline="alphabetic">key: (3,25)</text><text x="59.999916076660156" y="67.5" font-family="monospace" font-size="16px" fill="#1e1e1e" text-anchor="middle" style="white-space: pre;" direction="ltr" dominant-baseline="alphabetic">max: (4,32)</text></g><g stroke-linecap="round" transform="translate(352.6951904296875 256.82281494140625) rotate(0 70.73959350585938 42.5)"><path d="M21.25 0 C42.94 -1.01, 69.03 0.33, 120.23 0 M21.25 0 C48.06 -1.25, 74.1 -0.55, 120.23 0 M120.23 0 C136.24 1.46, 140.56 5.78, 141.48 21.25 M120.23 0 C134.89 -0.83, 141.01 5.27, 141.48 21.25 M141.48 21.25 C140.82 35.1, 140.32 44.24, 141.48 63.75 M141.48 21.25 C142.01 33.78, 141.83 44.93, 141.48 63.75 M141.48 63.75 C140.08 79.22, 135.55 83.28, 120.23 85 M141.48 63.75 C139.52 80.2, 136.46 85.32, 120.23 85 M120.23 85 C95.23 84.98, 72.97 84.31, 21.25 85 M120.23 85 C88.56 86.13, 56.57 85.72, 21.25 85 M21.25 85 C5.85 86.88, -0.46 78.53, 0 63.75 M21.25 85 C6.49 85.28, 1.29 77.47, 0 63.75 M0 63.75 C-1.23 55.96, -1.45 43.86, 0 21.25 M0 63.75 C-0.04 47.57, 1.13 30.42, 0 21.25 M0 21.25 C1.45 8.04, 7.39 -0.55, 21.25 0 M0 21.25 C-1.63 6.24, 7.35 -1.7, 21.25 0" stroke="#1e1e1e" stroke-width="2" fill="none"></path></g><g transform="translate(363.4348678588867 261.82281494140625) rotate(0 59.999916076660156 37.5)"><text x="59.999916076660156" y="17.5" font-family="monospace" font-size="16px" fill="#1e1e1e" text-anchor="middle" style="white-space: pre;" direction="ltr" dominant-baseline="alphabetic">result</text><text x="59.999916076660156" y="42.5" font-family="monospace" font-size="16px" fill="#1e1e1e" text-anchor="middle" style="white-space: pre;" direction="ltr" dominant-baseline="alphabetic">key: (4,4)</text><text x="59.999916076660156" y="67.5" font-family="monospace" font-size="16px" fill="#1e1e1e" text-anchor="middle" style="white-space: pre;" direction="ltr" dominant-baseline="alphabetic">max: (4,27)</text></g><g stroke-linecap="round"><g transform="translate(290.8411865234375 73.20304870605469) rotate(0 -24.134124755859375 22.234375)"><path d="M0 0 C-8.04 7.41, -40.22 37.06, -48.27 44.47 M0 0 C-8.04 7.41, -40.22 37.06, -48.27 44.47" stroke="#1e1e1e" stroke-width="2" fill="none"></path></g></g><mask></mask><g stroke-linecap="round"><g transform="translate(153.27606201171875 205.8905792236328) rotate(0 -9.45965576171875 18.930984497070312)"><path d="M0 0 C-3.15 6.31, -15.77 31.55, -18.92 37.86 M0 0 C-3.15 6.31, -15.77 31.55, -18.92 37.86" stroke="#1e1e1e" stroke-width="2" fill="none"></path></g></g><mask></mask><g stroke-linecap="round"><g transform="translate(428.99481201171875 66.40357971191406) rotate(0 35.80731201171875 29.635421752929688)"><path d="M0 0 C11.94 9.88, 59.68 49.39, 71.61 59.27 M0 0 C11.94 9.88, 59.68 49.39, 71.61 59.27" stroke="#1e1e1e" stroke-width="2" fill="none"></path></g></g><mask></mask><g stroke-linecap="round"><g transform="translate(504.4921875 207.79161071777344) rotate(0 -17.928375244140625 23.91015625)"><path d="M0 0 C-5.98 7.97, -29.88 39.85, -35.86 47.82 M0 0 C-5.98 7.97, -29.88 39.85, -35.86 47.82" stroke="#1e1e1e" stroke-width="2" fill="none"></path></g></g><mask></mask></svg>
  
